<svg xmlns="http://www.w3.org/2000/svg" fill="none" viewBox="0 0 82 20"><g fill="#273BF4" clip-path="url(#logo_svg__a)"><path d="M16.573 7.197c-.173.684-.304 1.41-.542 2.102-1.016 2.923-2.296 5.693-4.346 8.009-.336.384-.68.778-1.074 1.102-.484.402-.721.402-1.205-.025a13.877 13.877 0 0 1-1.484-1.573c-2.01-2.487-3.362-5.333-4.264-8.436a4.32 4.32 0 0 1-.197-.914c-.025-.231-.017-.513.09-.684 1.287-2.06 2.722-3.991 4.485-5.641 1.616-1.513 2.469-1.513 4.076.009 1.689 1.598 3.05 3.495 4.272 5.487.09.145.115.333.189.564Zm36.145-.881c1.533-1.06 2.976-.889 4.362.197.222.17.337.051.492-.06 1.55-1.051 3.174-1.137 4.822-.325 1.18.59 1.755 1.633 1.763 2.992.016 2.18.008 4.359 0 6.538 0 .522-.099.616-.607.616h-1.558c-.541 0-.598-.06-.598-.65V9.598c0-.837-.394-1.307-1.19-1.359a3.115 3.115 0 0 0-1.05.103c-.508.154-.737.53-.737 1.094v6.197c0 .555-.082.64-.623.64h-1.6c-.467 0-.54-.085-.54-.58V9.88c0-1.341-.755-1.948-2.026-1.615-.664.171-.951.556-.951 1.282v6.111c0 .522-.099.624-.599.624-.557 0-1.123-.008-1.68 0-.345.009-.493-.162-.493-.513V6.376c0-.367.164-.504.5-.504.533.008 1.066.017 1.6 0 .344-.017.647 0 .713.444Zm-8.127.308v-3.77c0-.615.05-.666.623-.666h1.64c.337 0 .5.154.5.513v13.068c0 .36-.163.513-.5.504-.516-.008-1.04 0-1.557 0-.648 0-.656-.008-.747-.726-1.558 1.094-3.222 1.248-4.96.624a4.526 4.526 0 0 1-2.37-1.94c-1.255-2.009-1.083-5.077.369-6.838.869-1.06 2-1.59 3.312-1.752 1.304-.162 2.51.154 3.69.983Zm-2.722 7.299c1.623.009 2.706-1.137 2.714-2.846.008-1.71-1.066-2.863-2.69-2.872-1.664-.008-2.746 1.111-2.746 2.846 0 1.727 1.057 2.864 2.722 2.872ZM31.578 6.539c.123-.676.123-.676.803-.676h1.517c.336 0 .492.163.492.513v9.402c0 .333-.156.496-.475.496h-1.6c-.63 0-.647-.017-.73-.676-.098.052-.196.095-.278.146-1.705 1.068-3.468 1.06-5.19.12-1.723-.94-2.444-2.565-2.518-4.53-.066-1.676.345-3.197 1.566-4.368 1.624-1.564 4.199-1.803 6.093-.607.098.06.213.12.32.18Zm-2.534 1.666c-1.566-.034-2.657 1.077-2.69 2.727-.032 1.803.976 2.957 2.608 2.983 1.574.025 2.64-1.094 2.665-2.795.033-1.718-.992-2.88-2.583-2.915Zm47.872.385c.508-.82 1-1.581 1.46-2.368.155-.256.32-.376.623-.367.754.025 1.5 0 2.255.017.13 0 .328.102.377.205.049.102 0 .325-.074.436-.886 1.265-1.763 2.538-2.69 3.769-.295.393-.27.633.008 1.009a195.246 195.246 0 0 1 3.01 4.264c.09.137.147.377.09.513-.04.111-.279.18-.426.18-.722.017-1.452-.009-2.173.017-.296.008-.468-.077-.624-.35-.524-.88-1.082-1.744-1.631-2.607-.058-.094-.123-.171-.222-.308-.295.453-.566.88-.836 1.3-.353.555-.689 1.127-1.066 1.666a.717.717 0 0 1-.476.282c-.762.025-1.533.025-2.296 0-.147-.009-.36-.094-.41-.214-.049-.12.017-.35.099-.478a328.748 328.748 0 0 1 3.132-4.436c.197-.274.18-.436-.008-.693-.943-1.29-1.87-2.59-2.788-3.906-.082-.11-.14-.333-.09-.427a.528.528 0 0 1 .401-.222 34.276 34.276 0 0 1 2.296 0 .72.72 0 0 1 .484.282c.46.675.878 1.367 1.32 2.06.066.12.148.222.255.376ZM11.16 20c3.297-2.897 5.15-6.692 6.536-10.837a.976.976 0 0 1 .115.145c.754 1.838 1.55 3.675 1.935 5.65.106.538.14 1.094.197 1.649.065.65-.173 1.205-.69 1.538-.483.317-1 .573-1.54.761-2.125.693-4.314.975-6.553 1.094ZM2.247 9.137c1.427 4.213 3.32 7.94 6.625 10.854-.64-.05-1.23-.085-1.812-.153-1.697-.206-3.378-.513-4.994-1.103a6.365 6.365 0 0 1-1.353-.692c-.557-.376-.762-.949-.713-1.658.115-1.633.59-3.146 1.18-4.641.337-.847.69-1.676 1.067-2.607Zm64.566 1.906V6.47c0-.538.066-.607.599-.607.55 0 1.09.009 1.64 0 .352-.008.525.145.525.53-.008 3.12-.008 6.24 0 9.359 0 .385-.172.53-.533.53-.558-.009-1.124 0-1.681 0-.476 0-.558-.085-.558-.573 0-1.555 0-3.11.008-4.666Zm1.394-8.855c.288 0 .575.008.862 0 .336-.009.508.145.508.504-.008.564 0 1.137 0 1.701 0 .316-.156.479-.443.479a68.82 68.82 0 0 1-1.878 0c-.27 0-.434-.146-.434-.445V2.641c0-.325.164-.462.459-.453h.926Z"/></g><defs><clipPath id="logo_svg__a"><path fill="#fff" d="M0 0h82v20H0z"/></clipPath></defs></svg>
