<svg xmlns="http://www.w3.org/2000/svg" version="1.0" viewBox="0 0 700 700"><path d="M348.2 17.2c-15.9 1.5-32 9.6-53 26.7-16.3 13.3-48.2 44.1-65.2 63-4.1 4.6-8.2 9.1-9 10-3.6 3.7-14.3 16.4-22.9 27.1-5.1 6.3-9.9 12.3-10.7 13.3-5.2 6.4-26.3 34.9-32 43.2-3.7 5.5-7.1 10.2-7.4 10.5-.3.3-5.4 7.8-11.3 16.8-11.4 17.3-13.5 22.2-13.1 31.5.4 12.1 2.5 21.9 9.5 44.2 7.4 23.9 22.7 66.3 27.3 76 .8 1.6 3.3 7.3 5.5 12.6 5 12.1 14.6 32.6 20.9 44.9 9.5 18.6 16.5 31.5 17.8 33.1.8.8 1.4 1.8 1.4 2.2 0 2.7 41.8 67 46 70.7.3.3 3.8 4.8 7.7 10 22.4 29.8 52.8 62.2 75.4 80.3 16 12.8 26.8 8.9 55.4-19.8 8.9-9 22.5-23.5 28.5-30.5 1.2-1.4 3.1-3.6 4.3-5 17.9-20.6 38.7-49.2 55.1-76 4.2-6.9 8-13.2 8.6-14 4-6.5 19.5-35.4 25.9-48.5 9-18.3 16.1-33.3 16.1-34 0-.2 1.1-2.8 2.4-5.7 1.4-2.9 4.3-9.8 6.6-15.3s4.8-11.4 5.6-13.2c.8-1.7 1.4-3.4 1.4-3.8 0-.4.7-2.1 1.5-3.8 1.8-4 13.1-34.3 15.5-41.7 4.1-12.4 7.1-23.4 11-40 2.3-9.6 4.6-18.5 5.1-19.8 2.3-5.8-.9-17.4-8.1-28.7-2.8-4.4-5.6-8.9-6.3-10-.6-1.1-2.4-3.6-3.9-5.6-1.6-2-2.8-3.9-2.8-4.2 0-2.7-59.4-83.1-64.1-86.7-.3-.3-3-3.4-6-7-2.9-3.6-5.8-7-6.4-7.6-.5-.6-4.6-5.1-8.9-10-4.4-4.9-16.6-17.5-27-27.9C399 28.9 375 14.7 348.2 17.2zM81.1 321.7c-.1.7-1.7 4.7-3.6 8.9-1.9 4.1-3.5 7.7-3.5 8 0 .2-.9 2.3-1.9 4.7-1.1 2.3-4.5 10.3-7.6 17.7-3.1 7.4-6.5 15.3-7.5 17.6-10.6 23.6-26.5 64.9-33.8 87.6-6.9 21.3-14.5 52.9-16.6 69.3-.3 2.2-.7 4.9-1 6.1-2 9.6-2.5 31.7-1 40.7 3.7 20.8 16.1 33.8 46.9 48.8 14 6.8 25.3 11 47.8 17.8 15.5 4.7 50.7 13.7 56.5 14.5 1.5.2 8.6 1.5 15.7 2.9 15.5 3.1 27.9 5.1 43.5 7.2l14 2c1.4.2 4.8.7 7.5 1 2.8.3 6.6.8 8.5 1 5.5.7 13.5 1.6 19.3 2 2.8.2 8.1.6 11.7.9 3.6.4 10.1.8 14.5 1.1 4.4.3 10.9.7 14.5 1l6.5.6-3.5-3.2c-1.9-1.7-6.9-6.1-11-9.8-20.6-18.2-53-52.4-71.1-75.1-22.8-28.5-48.3-66.1-65.2-96-16-28.3-36.8-70.6-48.2-98-1.5-3.6-3.3-7.9-4-9.5-3.1-6.9-16.7-42-20.9-54-5.3-14.7-6.4-17.5-6.5-15.8zm536 4.1c-3.9 11.1-16.5 45.1-17.6 47.7-.8 1.6-3.6 8.6-6.3 15.5-25.1 63.3-57.6 124.4-93.7 176.1-4.4 6.2-21.6 29.2-22.4 29.9-.3.3-2.4 2.7-4.6 5.5-17.6 22.3-48.2 54.2-70.5 73.6-5.2 4.5-9.7 8.4-10 8.6-.5.5 18.4-.3 29.5-1.2 3.3-.2 9.2-.7 13-1 3.9-.2 9-.7 11.5-.9 2.5-.3 7.7-.8 11.5-1.1 9.2-.8 35.3-4.1 48-6.1 14.5-2.2 15.5-2.3 21-3.4 2.8-.5 6.6-1.2 8.5-1.5 7.2-1.2 9.6-1.6 14-2.6 5.2-1.2 4.5-1.1 17-3.8 5.2-1.2 12-2.9 15-3.7 3-.9 6.3-1.8 7.3-1.9 4.4-.9 25.3-7.1 35.7-10.7 17.2-5.9 45.3-20 53.8-27.1 9.1-7.7 15.2-17.1 17.6-27.8 1.4-6 1.5-23.1.1-32.4-.2-1.7-.7-5.9-1-9.5-.3-3.6-.8-7.9-1-9.5-.3-1.7-.7-4.8-1-7-.5-3.5-1.5-9.3-3.1-18.1-2.8-14.9-10.6-43.1-19-67.9-6.4-18.9-18.5-50-32-81.7-18.7-44-19-44.6-21.3-38z"/></svg>
