<svg xmlns="http://www.w3.org/2000/svg" fill="none" viewBox="0 0 14 14"><path fill="#232747" fill-rule="evenodd" d="M8.22.83a.75.75 0 0 1 1.06 0l2.334 2.334a.75.75 0 0 1 0 1.06L10.058 5.78l-5.055 5.056a.75.75 0 0 1-.349.197l-3.111.778a.75.75 0 0 1-.91-.91l.778-3.11a.75.75 0 0 1 .198-.35l5.055-5.054v-.001L8.22.83ZM7.194 3.978 2.816 8.356l-.424 1.697 1.697-.425L8.467 5.25 7.194 3.977Zm2.334.212L8.255 2.917l.495-.495 1.273 1.272-.495.495ZM.61 13.028a.75.75 0 0 1 .75-.75h10.89a.75.75 0 1 1 0 1.5H1.361a.75.75 0 0 1-.75-.75Z" clip-rule="evenodd"/></svg>
