<svg xmlns="http://www.w3.org/2000/svg" fill="none" viewBox="0 0 24 24"><path fill="#fff" d="M11.429 15.428h1.143v-1.142h-1.143v1.143ZM12 6.287A5.716 5.716 0 0 0 6.286 12 5.716 5.716 0 0 0 12 17.714 5.716 5.716 0 0 0 17.714 12 5.716 5.716 0 0 0 12 6.286Zm0 10.285A4.578 4.578 0 0 1 7.43 12 4.578 4.578 0 0 1 12 7.428 4.577 4.577 0 0 1 16.572 12 4.578 4.578 0 0 1 12 16.57Zm0-8a2.285 2.285 0 0 0-2.286 2.286h1.143c0-.628.514-1.143 1.143-1.143s1.143.514 1.143 1.143c0 1.143-1.714 1-1.714 2.857h1.143c0-1.286 1.714-1.428 1.714-2.857A2.285 2.285 0 0 0 12 8.571Z"/></svg>
